<svg width="88" height="30" viewBox="0 0 88 30" fill="none" xmlns="http://www.w3.org/2000/svg">
<path d="M2.1083 20.972C1.6763 20.972 1.3283 20.84 1.0643 20.576C0.824298 20.312 0.704298 19.976 0.704298 19.568V2.288C0.704298 1.856 0.824298 1.52 1.0643 1.28C1.3283 1.016 1.6763 0.883999 2.1083 0.883999C2.5163 0.883999 2.8403 1.016 3.0803 1.28C3.3443 1.52 3.4763 1.856 3.4763 2.288V19.568C3.4763 19.976 3.3443 20.312 3.0803 20.576C2.8403 20.84 2.5163 20.972 2.1083 20.972ZM17.5883 29C17.1803 29 16.8443 28.868 16.5803 28.604C16.3163 28.34 16.1843 28.016 16.1843 27.632V18.272C16.1843 16.784 15.8963 15.56 15.3203 14.6C14.7683 13.64 14.0003 12.92 13.0163 12.44C12.0563 11.96 10.9643 11.72 9.7403 11.72C8.5643 11.72 7.4963 11.948 6.5363 12.404C5.6003 12.86 4.8563 13.484 4.3043 14.276C3.7523 15.068 3.4763 15.968 3.4763 16.976H1.4963C1.5443 15.464 1.9523 14.12 2.7203 12.944C3.4883 11.744 4.5083 10.808 5.7803 10.136C7.0523 9.44 8.4683 9.092 10.0283 9.092C11.7323 9.092 13.2563 9.452 14.6003 10.172C15.9443 10.868 17.0003 11.9 17.7683 13.268C18.5603 14.636 18.9563 16.304 18.9563 18.272V27.632C18.9563 28.016 18.8243 28.34 18.5603 28.604C18.2963 28.868 17.9723 29 17.5883 29ZM2.1083 29C1.6763 29 1.3283 28.88 1.0643 28.64C0.824298 28.376 0.704298 28.04 0.704298 27.632V10.712C0.704298 10.28 0.824298 9.944 1.0643 9.704C1.3283 9.44 1.6763 9.308 2.1083 9.308C2.5163 9.308 2.8403 9.44 3.0803 9.704C3.3443 9.944 3.4763 10.28 3.4763 10.712V27.632C3.4763 28.04 3.3443 28.376 3.0803 28.64C2.8403 28.88 2.5163 29 2.1083 29ZM33.4916 29.18C31.5716 29.18 29.8556 28.748 28.3436 27.884C26.8316 27.02 25.6436 25.832 24.7796 24.32C23.9156 22.808 23.4836 21.092 23.4836 19.172C23.4836 17.228 23.9156 15.5 24.7796 13.988C25.6436 12.476 26.8316 11.288 28.3436 10.424C29.8556 9.56 31.5716 9.128 33.4916 9.128C35.4116 9.128 37.1156 9.56 38.6036 10.424C40.1156 11.288 41.3036 12.476 42.1676 13.988C43.0316 15.5 43.4756 17.228 43.4996 19.172C43.4996 21.092 43.0556 22.808 42.1676 24.32C41.3036 25.832 40.1156 27.02 38.6036 27.884C37.1156 28.748 35.4116 29.18 33.4916 29.18ZM33.4916 26.66C34.8836 26.66 36.1316 26.336 37.2356 25.688C38.3396 25.04 39.2036 24.152 39.8276 23.024C40.4516 21.896 40.7636 20.612 40.7636 19.172C40.7636 17.732 40.4516 16.448 39.8276 15.32C39.2036 14.168 38.3396 13.268 37.2356 12.62C36.1316 11.972 34.8836 11.648 33.4916 11.648C32.0996 11.648 30.8516 11.972 29.7476 12.62C28.6436 13.268 27.7676 14.168 27.1196 15.32C26.4956 16.448 26.1836 17.732 26.1836 19.172C26.1836 20.612 26.4956 21.896 27.1196 23.024C27.7676 24.152 28.6436 25.04 29.7476 25.688C30.8516 26.336 32.0996 26.66 33.4916 26.66ZM57.3149 29.18C55.3949 29.18 53.6789 28.748 52.1669 27.884C50.6549 27.02 49.4669 25.832 48.6029 24.32C47.7389 22.808 47.3069 21.092 47.3069 19.172C47.3069 17.228 47.7389 15.5 48.6029 13.988C49.4669 12.476 50.6549 11.288 52.1669 10.424C53.6789 9.56 55.3949 9.128 57.3149 9.128C59.2349 9.128 60.9389 9.56 62.4269 10.424C63.9389 11.288 65.1269 12.476 65.9909 13.988C66.8549 15.5 67.2989 17.228 67.3229 19.172C67.3229 21.092 66.8789 22.808 65.9909 24.32C65.1269 25.832 63.9389 27.02 62.4269 27.884C60.9389 28.748 59.2349 29.18 57.3149 29.18ZM57.3149 26.66C58.7069 26.66 59.9549 26.336 61.0589 25.688C62.1629 25.04 63.0269 24.152 63.6509 23.024C64.2749 21.896 64.5869 20.612 64.5869 19.172C64.5869 17.732 64.2749 16.448 63.6509 15.32C63.0269 14.168 62.1629 13.268 61.0589 12.62C59.9549 11.972 58.7069 11.648 57.3149 11.648C55.9229 11.648 54.6749 11.972 53.5709 12.62C52.4669 13.268 51.5909 14.168 50.9429 15.32C50.3189 16.448 50.0069 17.732 50.0069 19.172C50.0069 20.612 50.3189 21.896 50.9429 23.024C51.5909 24.152 52.4669 25.04 53.5709 25.688C54.6749 26.336 55.9229 26.66 57.3149 26.66ZM74.4421 22.412L72.7501 20.576L85.0621 9.452C85.3501 9.188 85.6501 9.068 85.9621 9.092C86.2741 9.092 86.5621 9.236 86.8261 9.524C87.0901 9.812 87.2101 10.124 87.1861 10.46C87.1861 10.772 87.0421 11.048 86.7541 11.288L74.4421 22.412ZM73.5421 29C73.1341 29 72.7981 28.88 72.5341 28.64C72.2941 28.376 72.1741 28.04 72.1741 27.632V2.252C72.1741 1.844 72.2941 1.52 72.5341 1.28C72.7981 1.016 73.1341 0.883999 73.5421 0.883999C73.9501 0.883999 74.2741 1.016 74.5141 1.28C74.7781 1.52 74.9101 1.844 74.9101 2.252V27.632C74.9101 28.04 74.7781 28.376 74.5141 28.64C74.2741 28.88 73.9501 29 73.5421 29ZM86.8621 28.82C86.5501 29.084 86.2261 29.192 85.8901 29.144C85.5541 29.12 85.2661 28.952 85.0261 28.64L76.9981 18.776L78.9421 17.048L87.0421 27.02C87.2821 27.308 87.3901 27.62 87.3661 27.956C87.3421 28.268 87.1741 28.556 86.8621 28.82Z" fill="#34D399"/>
</svg>
