<svg width="74" height="25" viewBox="0 0 74 25" fill="none" xmlns="http://www.w3.org/2000/svg">
<path d="M2.00691 17.31C1.64691 17.31 1.35691 17.2 1.13691 16.98C0.936913 16.76 0.836913 16.48 0.836913 16.14V1.74C0.836913 1.38 0.936913 1.1 1.13691 0.899999C1.35691 0.679999 1.64691 0.569999 2.00691 0.569999C2.34691 0.569999 2.61691 0.679999 2.81691 0.899999C3.03691 1.1 3.14691 1.38 3.14691 1.74V16.14C3.14691 16.48 3.03691 16.76 2.81691 16.98C2.61691 17.2 2.34691 17.31 2.00691 17.31ZM14.9069 24C14.5669 24 14.2869 23.89 14.0669 23.67C13.8469 23.45 13.7369 23.18 13.7369 22.86V15.06C13.7369 13.82 13.4969 12.8 13.0169 12C12.5569 11.2 11.9169 10.6 11.0969 10.2C10.2969 9.8 9.38691 9.6 8.36691 9.6C7.38691 9.6 6.49691 9.79 5.69691 10.17C4.91691 10.55 4.29691 11.07 3.83691 11.73C3.37691 12.39 3.14691 13.14 3.14691 13.98H1.49691C1.53691 12.72 1.87691 11.6 2.51691 10.62C3.15691 9.62 4.00691 8.84 5.06691 8.28C6.12691 7.7 7.30691 7.41 8.60691 7.41C10.0269 7.41 11.2969 7.71 12.4169 8.31C13.5369 8.89 14.4169 9.75 15.0569 10.89C15.7169 12.03 16.0469 13.42 16.0469 15.06V22.86C16.0469 23.18 15.9369 23.45 15.7169 23.67C15.4969 23.89 15.2269 24 14.9069 24ZM2.00691 24C1.64691 24 1.35691 23.9 1.13691 23.7C0.936913 23.48 0.836913 23.2 0.836913 22.86V8.76C0.836913 8.4 0.936913 8.12 1.13691 7.92C1.35691 7.7 1.64691 7.59 2.00691 7.59C2.34691 7.59 2.61691 7.7 2.81691 7.92C3.03691 8.12 3.14691 8.4 3.14691 8.76V22.86C3.14691 23.2 3.03691 23.48 2.81691 23.7C2.61691 23.9 2.34691 24 2.00691 24ZM28.1596 24.15C26.5596 24.15 25.1296 23.79 23.8696 23.07C22.6096 22.35 21.6196 21.36 20.8996 20.1C20.1796 18.84 19.8196 17.41 19.8196 15.81C19.8196 14.19 20.1796 12.75 20.8996 11.49C21.6196 10.23 22.6096 9.24 23.8696 8.52C25.1296 7.8 26.5596 7.44 28.1596 7.44C29.7596 7.44 31.1796 7.8 32.4196 8.52C33.6796 9.24 34.6696 10.23 35.3896 11.49C36.1096 12.75 36.4796 14.19 36.4996 15.81C36.4996 17.41 36.1296 18.84 35.3896 20.1C34.6696 21.36 33.6796 22.35 32.4196 23.07C31.1796 23.79 29.7596 24.15 28.1596 24.15ZM28.1596 22.05C29.3196 22.05 30.3596 21.78 31.2796 21.24C32.1996 20.7 32.9196 19.96 33.4396 19.02C33.9596 18.08 34.2196 17.01 34.2196 15.81C34.2196 14.61 33.9596 13.54 33.4396 12.6C32.9196 11.64 32.1996 10.89 31.2796 10.35C30.3596 9.81 29.3196 9.54 28.1596 9.54C26.9996 9.54 25.9596 9.81 25.0396 10.35C24.1196 10.89 23.3896 11.64 22.8496 12.6C22.3296 13.54 22.0696 14.61 22.0696 15.81C22.0696 17.01 22.3296 18.08 22.8496 19.02C23.3896 19.96 24.1196 20.7 25.0396 21.24C25.9596 21.78 26.9996 22.05 28.1596 22.05ZM48.0124 24.15C46.4124 24.15 44.9824 23.79 43.7224 23.07C42.4624 22.35 41.4724 21.36 40.7524 20.1C40.0324 18.84 39.6724 17.41 39.6724 15.81C39.6724 14.19 40.0324 12.75 40.7524 11.49C41.4724 10.23 42.4624 9.24 43.7224 8.52C44.9824 7.8 46.4124 7.44 48.0124 7.44C49.6124 7.44 51.0324 7.8 52.2724 8.52C53.5324 9.24 54.5224 10.23 55.2424 11.49C55.9624 12.75 56.3324 14.19 56.3524 15.81C56.3524 17.41 55.9824 18.84 55.2424 20.1C54.5224 21.36 53.5324 22.35 52.2724 23.07C51.0324 23.79 49.6124 24.15 48.0124 24.15ZM48.0124 22.05C49.1724 22.05 50.2124 21.78 51.1324 21.24C52.0524 20.7 52.7724 19.96 53.2924 19.02C53.8124 18.08 54.0724 17.01 54.0724 15.81C54.0724 14.61 53.8124 13.54 53.2924 12.6C52.7724 11.64 52.0524 10.89 51.1324 10.35C50.2124 9.81 49.1724 9.54 48.0124 9.54C46.8524 9.54 45.8124 9.81 44.8924 10.35C43.9724 10.89 43.2424 11.64 42.7024 12.6C42.1824 13.54 41.9224 14.61 41.9224 15.81C41.9224 17.01 42.1824 18.08 42.7024 19.02C43.2424 19.96 43.9724 20.7 44.8924 21.24C45.8124 21.78 46.8524 22.05 48.0124 22.05ZM62.2851 18.51L60.8751 16.98L71.1351 7.71C71.3751 7.49 71.6251 7.39 71.8851 7.41C72.1451 7.41 72.3851 7.53 72.6051 7.77C72.8251 8.01 72.9251 8.27 72.9051 8.55C72.9051 8.81 72.7851 9.04 72.5451 9.24L62.2851 18.51ZM61.5351 24C61.1951 24 60.9151 23.9 60.6951 23.7C60.4951 23.48 60.3951 23.2 60.3951 22.86V1.71C60.3951 1.37 60.4951 1.1 60.6951 0.899999C60.9151 0.679999 61.1951 0.569999 61.5351 0.569999C61.8751 0.569999 62.1451 0.679999 62.3451 0.899999C62.5651 1.1 62.6751 1.37 62.6751 1.71V22.86C62.6751 23.2 62.5651 23.48 62.3451 23.7C62.1451 23.9 61.8751 24 61.5351 24ZM72.6351 23.85C72.3751 24.07 72.1051 24.16 71.8251 24.12C71.5451 24.1 71.3051 23.96 71.1051 23.7L64.4151 15.48L66.0351 14.04L72.7851 22.35C72.9851 22.59 73.0751 22.85 73.0551 23.13C73.0351 23.39 72.8951 23.63 72.6351 23.85Z" fill="black"/>
</svg>
